<?xml version="1.0" encoding="utf-8"?>
<svg width="100%" viewBox="0.977 -0.977 728.051 282.407" role="img" xmlns="http://www.w3.org/2000/svg" style="" xmlns:bx="https://boxy-svg.com">
  <title style="fill:rgb(0, 0, 0);stroke:none;color:rgb(11, 11, 11);stroke-width:1px;stroke-linecap:butt;stroke-linejoin:miter;opacity:1;font-family:&quot;Anthropic Sans&quot;, -apple-system, BlinkMacSystemFont, &quot;Segoe UI&quot;, sans-serif;font-size:16px;font-weight:400;text-anchor:start;dominant-baseline:auto">The agent didn't lie, it just didn't know — post banner</title>
  <desc style="fill:rgb(0, 0, 0);stroke:none;color:rgb(11, 11, 11);stroke-width:1px;stroke-linecap:butt;stroke-linejoin:miter;opacity:1;font-family:&quot;Anthropic Sans&quot;, -apple-system, BlinkMacSystemFont, &quot;Segoe UI&quot;, sans-serif;font-size:16px;font-weight:400;text-anchor:start;dominant-baseline:auto">Blog post banner showing a golfer on a tee looking at his phone in frustration, water hazard running the full right side, scrub dividing two fairways, bunkers on the left fairway edge, golf flag in the distance</desc>
  <defs>
    <linearGradient id="color-0" bx:pinned="true" gradientUnits="userSpaceOnUse">
      <stop style="stop-color: rgb(107, 73, 43);"/>
    </linearGradient>
    <bx:export>
      <bx:file format="svg" path="The agent didn't lie, it just didn't know — post banner.svg" excluded="true"/>
    </bx:export>
  </defs>
  <rect x="0.255" y="-1.216" width="730" height="200" fill="#E6F1FB" style="fill: rgb(230, 241, 251); stroke: none; color: rgb(11, 11, 11); stroke-width: 1; stroke-linecap: butt; stroke-linejoin: miter; opacity: 1; font-family: &quot;Anthropic Sans&quot;, -apple-system, BlinkMacSystemFont, &quot;Segoe UI&quot;, sans-serif; font-size: 16px; font-weight: 400; text-anchor: start; dominant-baseline: auto;"/>
  <rect x="-0.525" y="171.387" width="730" height="110" fill="#C0DD97" style="fill: rgb(192, 221, 151); stroke: none; color: rgb(11, 11, 11); stroke-width: 1; stroke-linecap: butt; stroke-linejoin: miter; opacity: 1; font-family: &quot;Anthropic Sans&quot;, -apple-system, BlinkMacSystemFont, &quot;Segoe UI&quot;, sans-serif; font-size: 16px; font-weight: 400; text-anchor: start; dominant-baseline: auto;"/>
  <ellipse cx="364.475" cy="186.387" rx="420" ry="40" fill="#97C459" clip-path="url(#rect-clip)" style="fill: rgb(151, 196, 89); stroke: none; color: rgb(11, 11, 11); stroke-width: 1; stroke-linecap: butt; stroke-linejoin: miter; opacity: 1; font-family: &quot;Anthropic Sans&quot;, -apple-system, BlinkMacSystemFont, &quot;Segoe UI&quot;, sans-serif; font-size: 16px; font-weight: 400; text-anchor: start; dominant-baseline: auto;"/>
  <polygon points="-0.525 281.387 259.475 281.387 319.475 186.387 219.475 173.387 79.475 176.387 -0.525 191.387" fill="#97C459" clip-path="url(#rect-clip)" style="fill: rgb(151, 196, 89); stroke: none; color: rgb(11, 11, 11); stroke-width: 1; stroke-linecap: butt; stroke-linejoin: miter; opacity: 1; font-family: &quot;Anthropic Sans&quot;, -apple-system, BlinkMacSystemFont, &quot;Segoe UI&quot;, sans-serif; font-size: 16px; font-weight: 400; text-anchor: start; dominant-baseline: auto;"/>
  <polygon points="-0.525 281.387 219.475 281.387 269.475 196.387 179.475 181.387 59.475 183.387 -0.525 201.387" fill="#7AAF3A" opacity="0.5" clip-path="url(#rect-clip)" style="fill: rgb(122, 175, 58); stroke: none; color: rgb(11, 11, 11); stroke-width: 1; stroke-linecap: butt; stroke-linejoin: miter; opacity: 0.5; font-family: &quot;Anthropic Sans&quot;, -apple-system, BlinkMacSystemFont, &quot;Segoe UI&quot;, sans-serif; font-size: 16px; font-weight: 400; text-anchor: start; dominant-baseline: auto;"/>
  <polygon points="529.475 281.387 729.475 281.387 729.475 151.387 579.475 159.387 529.475 191.387" fill="#85B7EB" clip-path="url(#rect-clip)" style="fill: rgb(133, 183, 235); stroke: none; color: rgb(11, 11, 11); stroke-width: 1; stroke-linecap: butt; stroke-linejoin: miter; opacity: 1; font-family: &quot;Anthropic Sans&quot;, -apple-system, BlinkMacSystemFont, &quot;Segoe UI&quot;, sans-serif; font-size: 16px; font-weight: 400; text-anchor: start; dominant-baseline: auto;"/>
  <polygon points="599.475 281.387 729.475 281.387 729.475 156.387 619.475 161.387" fill="#378ADD" opacity="0.35" clip-path="url(#rect-clip)" style="fill: rgb(55, 138, 221); stroke: none; color: rgb(11, 11, 11); stroke-width: 1; stroke-linecap: butt; stroke-linejoin: miter; opacity: 0.35; font-family: &quot;Anthropic Sans&quot;, -apple-system, BlinkMacSystemFont, &quot;Segoe UI&quot;, sans-serif; font-size: 16px; font-weight: 400; text-anchor: start; dominant-baseline: auto;"/>
  <line x1="569.475" y1="201.387" x2="699.475" y2="196.387" stroke="#B5D4F4" stroke-width="1.2" opacity="0.7" style="fill: rgb(0, 0, 0); stroke: rgb(181, 212, 244); color: rgb(11, 11, 11); stroke-width: 1.2; stroke-linecap: butt; stroke-linejoin: miter; opacity: 0.7; font-family: &quot;Anthropic Sans&quot;, -apple-system, BlinkMacSystemFont, &quot;Segoe UI&quot;, sans-serif; font-size: 16px; font-weight: 400; text-anchor: start; dominant-baseline: auto;"/>
  <line x1="554.475" y1="216.387" x2="709.475" y2="209.387" stroke="#B5D4F4" stroke-width="1" opacity="0.6" style="fill: rgb(0, 0, 0); stroke: rgb(181, 212, 244); color: rgb(11, 11, 11); stroke-width: 1; stroke-linecap: butt; stroke-linejoin: miter; opacity: 0.6; font-family: &quot;Anthropic Sans&quot;, -apple-system, BlinkMacSystemFont, &quot;Segoe UI&quot;, sans-serif; font-size: 16px; font-weight: 400; text-anchor: start; dominant-baseline: auto;"/>
  <line x1="544.475" y1="233.387" x2="719.475" y2="226.387" stroke="#B5D4F4" stroke-width="1" opacity="0.5" style="fill: rgb(0, 0, 0); stroke: rgb(181, 212, 244); color: rgb(11, 11, 11); stroke-width: 1; stroke-linecap: butt; stroke-linejoin: miter; opacity: 0.5; font-family: &quot;Anthropic Sans&quot;, -apple-system, BlinkMacSystemFont, &quot;Segoe UI&quot;, sans-serif; font-size: 16px; font-weight: 400; text-anchor: start; dominant-baseline: auto;"/>
  <line x1="539.475" y1="251.387" x2="724.475" y2="246.387" stroke="#B5D4F4" stroke-width="1" opacity="0.4" style="fill: rgb(0, 0, 0); stroke: rgb(181, 212, 244); color: rgb(11, 11, 11); stroke-width: 1; stroke-linecap: butt; stroke-linejoin: miter; opacity: 0.4; font-family: &quot;Anthropic Sans&quot;, -apple-system, BlinkMacSystemFont, &quot;Segoe UI&quot;, sans-serif; font-size: 16px; font-weight: 400; text-anchor: start; dominant-baseline: auto;"/>
  <path d="M 529.475 191.387 C 542.808 183.387 559.475 176.053 579.475 169.387 C 606.141 162.72 656.141 157.72 729.475 154.387" fill="none" stroke="#185FA5" stroke-width="1" opacity="0.4" mask="url(#imagine-text-gaps-rfpvz7)" style="fill: none; stroke: rgb(24, 95, 165); color: rgb(11, 11, 11); stroke-width: 1; stroke-linecap: butt; stroke-linejoin: miter; opacity: 0.4; font-family: &quot;Anthropic Sans&quot;, -apple-system, BlinkMacSystemFont, &quot;Segoe UI&quot;, sans-serif; font-size: 16px; font-weight: 400; text-anchor: start; dominant-baseline: auto;"/>
  <text x="639.475" y="191.387" text-anchor="middle" font-family="monospace" font-size="11" fill="#0C447C" opacity="0.8" style="fill: rgb(12, 68, 124); stroke: none; color: rgb(11, 11, 11); stroke-width: 1; stroke-linecap: butt; stroke-linejoin: miter; opacity: 0.8; font-family: monospace; font-size: 11px; font-weight: 400; text-anchor: middle; dominant-baseline: auto; white-space: pre;">water</text>
  <polygon points="299.475 281.387 529.475 281.387 529.475 191.387 479.475 176.387 309.475 179.387 279.475 201.387" fill="#97C459" clip-path="url(#rect-clip)" style="fill: rgb(151, 196, 89); stroke: none; color: rgb(11, 11, 11); stroke-width: 1; stroke-linecap: butt; stroke-linejoin: miter; opacity: 1; font-family: &quot;Anthropic Sans&quot;, -apple-system, BlinkMacSystemFont, &quot;Segoe UI&quot;, sans-serif; font-size: 16px; font-weight: 400; text-anchor: start; dominant-baseline: auto;"/>
  <polygon points="319.475 281.387 499.475 281.387 494.475 201.387 359.475 189.387 304.475 206.387" fill="#7AAF3A" opacity="0.3" style="fill: rgb(122, 175, 58); stroke: none; color: rgb(11, 11, 11); stroke-width: 1; stroke-linecap: butt; stroke-linejoin: miter; opacity: 0.3; font-family: &quot;Anthropic Sans&quot;, -apple-system, BlinkMacSystemFont, &quot;Segoe UI&quot;, sans-serif; font-size: 16px; font-weight: 400; text-anchor: start; dominant-baseline: auto;"/>
  <ellipse cx="320.45" cy="240.689" rx="30" ry="11" fill="#E8D5A0" style="fill: rgb(232, 213, 160); stroke: none; color: rgb(11, 11, 11); stroke-width: 1; stroke-linecap: butt; stroke-linejoin: miter; opacity: 1; font-family: &quot;Anthropic Sans&quot;, -apple-system, BlinkMacSystemFont, &quot;Segoe UI&quot;, sans-serif; font-size: 16px; font-weight: 400; text-anchor: start; dominant-baseline: auto;"/>
  <ellipse cx="320.45" cy="240.362" rx="24" ry="8" fill="#DEC88A" style="fill: rgb(222, 200, 138); stroke: none; color: rgb(11, 11, 11); stroke-width: 1; stroke-linecap: butt; stroke-linejoin: miter; opacity: 1; font-family: &quot;Anthropic Sans&quot;, -apple-system, BlinkMacSystemFont, &quot;Segoe UI&quot;, sans-serif; font-size: 16px; font-weight: 400; text-anchor: start; dominant-baseline: auto;"/>
  <ellipse cx="331.345" cy="219.418" rx="22" ry="8" fill="#E8D5A0" style="fill: rgb(232, 213, 160); stroke: none; color: rgb(11, 11, 11); stroke-width: 1; stroke-linecap: butt; stroke-linejoin: miter; opacity: 1; font-family: &quot;Anthropic Sans&quot;, -apple-system, BlinkMacSystemFont, &quot;Segoe UI&quot;, sans-serif; font-size: 16px; font-weight: 400; text-anchor: start; dominant-baseline: auto;"/>
  <ellipse cx="332" cy="219.745" rx="17" ry="6" fill="#DEC88A" style="fill: rgb(222, 200, 138); stroke: none; color: rgb(11, 11, 11); stroke-width: 1; stroke-linecap: butt; stroke-linejoin: miter; opacity: 1; font-family: &quot;Anthropic Sans&quot;, -apple-system, BlinkMacSystemFont, &quot;Segoe UI&quot;, sans-serif; font-size: 16px; font-weight: 400; text-anchor: start; dominant-baseline: auto;"/>
  <ellipse cx="341.821" cy="200.202" rx="16" ry="6" fill="#E8D5A0" style="fill: rgb(232, 213, 160); stroke: none; color: rgb(11, 11, 11); stroke-width: 1; stroke-linecap: butt; stroke-linejoin: miter; opacity: 1; font-family: &quot;Anthropic Sans&quot;, -apple-system, BlinkMacSystemFont, &quot;Segoe UI&quot;, sans-serif; font-size: 16px; font-weight: 400; text-anchor: start; dominant-baseline: auto;"/>
  <ellipse cx="342.802" cy="200.202" rx="12" ry="4" fill="#DEC88A" style="fill: rgb(222, 200, 138); stroke: none; color: rgb(11, 11, 11); stroke-width: 1; stroke-linecap: butt; stroke-linejoin: miter; opacity: 1; font-family: &quot;Anthropic Sans&quot;, -apple-system, BlinkMacSystemFont, &quot;Segoe UI&quot;, sans-serif; font-size: 16px; font-weight: 400; text-anchor: start; dominant-baseline: auto;"/>
  <ellipse cx="429.475" cy="169.387" rx="28" ry="9" fill="#4CAF6E" style="fill: rgb(76, 175, 110); stroke: none; color: rgb(11, 11, 11); stroke-width: 1; stroke-linecap: butt; stroke-linejoin: miter; opacity: 1; font-family: &quot;Anthropic Sans&quot;, -apple-system, BlinkMacSystemFont, &quot;Segoe UI&quot;, sans-serif; font-size: 16px; font-weight: 400; text-anchor: start; dominant-baseline: auto;"/>
  <line x1="429.475" y1="160.387" x2="429.475" y2="139.387" stroke="#2C2C2A" stroke-width="2" style="fill: rgb(0, 0, 0); stroke: rgb(44, 44, 42); color: rgb(11, 11, 11); stroke-width: 2; stroke-linecap: butt; stroke-linejoin: miter; opacity: 1; font-family: &quot;Anthropic Sans&quot;, -apple-system, BlinkMacSystemFont, &quot;Segoe UI&quot;, sans-serif; font-size: 16px; font-weight: 400; text-anchor: start; dominant-baseline: auto;"/>
  <polygon points="429.475 139.387 451.475 146.387 429.475 153.387" fill="#E24B4A" style="fill: rgb(226, 75, 74); stroke: none; color: rgb(11, 11, 11); stroke-width: 1; stroke-linecap: butt; stroke-linejoin: miter; opacity: 1; font-family: &quot;Anthropic Sans&quot;, -apple-system, BlinkMacSystemFont, &quot;Segoe UI&quot;, sans-serif; font-size: 16px; font-weight: 400; text-anchor: start; dominant-baseline: auto;"/>
  <ellipse cx="429.475" cy="162.387" rx="7" ry="3" fill="#444441" style="fill: rgb(68, 68, 65); stroke: none; color: rgb(11, 11, 11); stroke-width: 1; stroke-linecap: butt; stroke-linejoin: miter; opacity: 1; font-family: &quot;Anthropic Sans&quot;, -apple-system, BlinkMacSystemFont, &quot;Segoe UI&quot;, sans-serif; font-size: 16px; font-weight: 400; text-anchor: start; dominant-baseline: auto;"/>
  <text x="39.475" y="29.387" fill="#185FA5" font-size="12" font-weight="500" font-family="'Anthropic Sans', -apple-system, BlinkMacSystemFont, 'Segoe UI', sans-serif" style="fill: rgb(24, 95, 165); stroke: none; color: rgb(11, 11, 11); stroke-width: 1; stroke-linecap: butt; stroke-linejoin: miter; opacity: 1; font-family: &quot;Anthropic Sans&quot;, -apple-system, BlinkMacSystemFont, &quot;Segoe UI&quot;, sans-serif; font-size: 12px; font-weight: 500; text-anchor: start; dominant-baseline: auto; white-space: pre;">Building an Agentic Golf Caddie</text>
  <text x="39.475" y="73.387" fill="#0C447C" font-family="'Anthropic Sans', -apple-system, BlinkMacSystemFont, 'Segoe UI', sans-serif" font-size="22" font-weight="500" style="fill: rgb(12, 68, 124); stroke: none; color: rgb(11, 11, 11); stroke-width: 1; stroke-linecap: butt; stroke-linejoin: miter; opacity: 1; font-family: &quot;Anthropic Sans&quot;, -apple-system, BlinkMacSystemFont, &quot;Segoe UI&quot;, sans-serif; font-size: 22px; font-weight: 500; text-anchor: start; dominant-baseline: auto; white-space: pre;">The agent didn't lie,</text>
  <text x="39.475" y="103.387" fill="#0C447C" font-family="'Anthropic Sans', -apple-system, BlinkMacSystemFont, 'Segoe UI', sans-serif" font-size="22" font-weight="500" style="fill: rgb(12, 68, 124); stroke: none; color: rgb(11, 11, 11); stroke-width: 1; stroke-linecap: butt; stroke-linejoin: miter; opacity: 1; font-family: &quot;Anthropic Sans&quot;, -apple-system, BlinkMacSystemFont, &quot;Segoe UI&quot;, sans-serif; font-size: 22px; font-weight: 500; text-anchor: start; dominant-baseline: auto; white-space: pre;">it just didn't know</text>
  <rect x="464.475" y="213.387" width="7" height="11" rx="2" fill="#E24B4A" style="fill: rgb(226, 75, 74); stroke: none; color: rgb(11, 11, 11); stroke-width: 1; stroke-linecap: butt; stroke-linejoin: miter; opacity: 1; font-family: &quot;Anthropic Sans&quot;, -apple-system, BlinkMacSystemFont, &quot;Segoe UI&quot;, sans-serif; font-size: 16px; font-weight: 400; text-anchor: start; dominant-baseline: auto;"/>
  <rect x="520.254" y="220.784" width="7" height="11" rx="2" fill="#E24B4A" style="fill: rgb(226, 75, 74); stroke: none; color: rgb(11, 11, 11); stroke-width: 1; stroke-linecap: butt; stroke-linejoin: miter; opacity: 1; font-family: &quot;Anthropic Sans&quot;, -apple-system, BlinkMacSystemFont, &quot;Segoe UI&quot;, sans-serif; font-size: 16px; font-weight: 400; text-anchor: start; dominant-baseline: auto;"/>
  <ellipse cx="492.475" cy="259.387" rx="20" ry="5" fill="#3B6D11" opacity="0.3" style="fill: rgb(59, 109, 17); stroke: none; color: rgb(11, 11, 11); stroke-width: 1; stroke-linecap: butt; stroke-linejoin: miter; opacity: 0.3; font-family: &quot;Anthropic Sans&quot;, -apple-system, BlinkMacSystemFont, &quot;Segoe UI&quot;, sans-serif; font-size: 16px; font-weight: 400; text-anchor: start; dominant-baseline: auto;"/>
  <line x1="485.475" y1="231.387" x2="480.475" y2="258.387" stroke="#185FA5" stroke-width="8" stroke-linecap="round" style="fill: rgb(0, 0, 0); stroke: rgb(24, 95, 165); color: rgb(11, 11, 11); stroke-width: 8; stroke-linecap: round; stroke-linejoin: miter; opacity: 1; font-family: &quot;Anthropic Sans&quot;, -apple-system, BlinkMacSystemFont, &quot;Segoe UI&quot;, sans-serif; font-size: 16px; font-weight: 400; text-anchor: start; dominant-baseline: auto;"/>
  <line x1="495.475" y1="231.387" x2="499.475" y2="258.387" stroke="#185FA5" stroke-width="8" stroke-linecap="round" style="fill: rgb(0, 0, 0); stroke: rgb(24, 95, 165); color: rgb(11, 11, 11); stroke-width: 8; stroke-linecap: round; stroke-linejoin: miter; opacity: 1; font-family: &quot;Anthropic Sans&quot;, -apple-system, BlinkMacSystemFont, &quot;Segoe UI&quot;, sans-serif; font-size: 16px; font-weight: 400; text-anchor: start; dominant-baseline: auto;"/>
  <ellipse cx="479.475" cy="259.387" rx="10" ry="4" fill="#2C2C2A" style="fill: rgb(44, 44, 42); stroke: none; color: rgb(11, 11, 11); stroke-width: 1; stroke-linecap: butt; stroke-linejoin: miter; opacity: 1; font-family: &quot;Anthropic Sans&quot;, -apple-system, BlinkMacSystemFont, &quot;Segoe UI&quot;, sans-serif; font-size: 16px; font-weight: 400; text-anchor: start; dominant-baseline: auto;"/>
  <ellipse cx="501.475" cy="259.387" rx="10" ry="4" fill="#2C2C2A" style="fill: rgb(44, 44, 42); stroke: none; color: rgb(11, 11, 11); stroke-width: 1; stroke-linecap: butt; stroke-linejoin: miter; opacity: 1; font-family: &quot;Anthropic Sans&quot;, -apple-system, BlinkMacSystemFont, &quot;Segoe UI&quot;, sans-serif; font-size: 16px; font-weight: 400; text-anchor: start; dominant-baseline: auto;"/>
  <rect x="476.475" y="196.387" width="28" height="37" rx="8" fill="#D85A30" style="fill: rgb(216, 90, 48); stroke: none; color: rgb(11, 11, 11); stroke-width: 1; stroke-linecap: butt; stroke-linejoin: miter; opacity: 1; font-family: &quot;Anthropic Sans&quot;, -apple-system, BlinkMacSystemFont, &quot;Segoe UI&quot;, sans-serif; font-size: 16px; font-weight: 400; text-anchor: start; dominant-baseline: auto;"/>
  <rect x="462.475" y="199.387" width="12" height="34" rx="5" fill="#444441" style="fill: rgb(68, 68, 65); stroke: none; color: rgb(11, 11, 11); stroke-width: 1; stroke-linecap: butt; stroke-linejoin: miter; opacity: 1; font-family: &quot;Anthropic Sans&quot;, -apple-system, BlinkMacSystemFont, &quot;Segoe UI&quot;, sans-serif; font-size: 16px; font-weight: 400; text-anchor: start; dominant-baseline: auto;"/>
  <rect x="459.475" y="205.387" width="17" height="6" rx="2" fill="#2C2C2A" style="fill: rgb(44, 44, 42); stroke: none; color: rgb(11, 11, 11); stroke-width: 1; stroke-linecap: butt; stroke-linejoin: miter; opacity: 1; font-family: &quot;Anthropic Sans&quot;, -apple-system, BlinkMacSystemFont, &quot;Segoe UI&quot;, sans-serif; font-size: 16px; font-weight: 400; text-anchor: start; dominant-baseline: auto;"/>
  <line x1="467.475" y1="199.387" x2="463.475" y2="185.387" stroke="#888780" stroke-width="2" stroke-linecap="round" style="fill: rgb(0, 0, 0); stroke: rgb(136, 135, 128); color: rgb(11, 11, 11); stroke-width: 2; stroke-linecap: round; stroke-linejoin: miter; opacity: 1; font-family: &quot;Anthropic Sans&quot;, -apple-system, BlinkMacSystemFont, &quot;Segoe UI&quot;, sans-serif; font-size: 16px; font-weight: 400; text-anchor: start; dominant-baseline: auto;"/>
  <line x1="470.475" y1="199.387" x2="467.475" y2="183.387" stroke="#888780" stroke-width="2" stroke-linecap="round" style="fill: rgb(0, 0, 0); stroke: rgb(136, 135, 128); color: rgb(11, 11, 11); stroke-width: 2; stroke-linecap: round; stroke-linejoin: miter; opacity: 1; font-family: &quot;Anthropic Sans&quot;, -apple-system, BlinkMacSystemFont, &quot;Segoe UI&quot;, sans-serif; font-size: 16px; font-weight: 400; text-anchor: start; dominant-baseline: auto;"/>
  <line x1="473.475" y1="199.387" x2="471.475" y2="184.387" stroke="#888780" stroke-width="1.5" stroke-linecap="round" style="fill: rgb(0, 0, 0); stroke: rgb(136, 135, 128); color: rgb(11, 11, 11); stroke-width: 1.5; stroke-linecap: round; stroke-linejoin: miter; opacity: 1; font-family: &quot;Anthropic Sans&quot;, -apple-system, BlinkMacSystemFont, &quot;Segoe UI&quot;, sans-serif; font-size: 16px; font-weight: 400; text-anchor: start; dominant-baseline: auto;"/>
  <line x1="467.475" y1="203.387" x2="479.475" y2="197.387" stroke="#5F5E5A" stroke-width="2.5" stroke-linecap="round" style="fill: rgb(0, 0, 0); stroke: rgb(95, 94, 90); color: rgb(11, 11, 11); stroke-width: 2.5; stroke-linecap: round; stroke-linejoin: miter; opacity: 1; font-family: &quot;Anthropic Sans&quot;, -apple-system, BlinkMacSystemFont, &quot;Segoe UI&quot;, sans-serif; font-size: 16px; font-weight: 400; text-anchor: start; dominant-baseline: auto;"/>
  <line x1="504.475" y1="203.387" x2="515.475" y2="187.387" stroke="#D85A30" stroke-width="8" stroke-linecap="round" style="fill: rgb(0, 0, 0); stroke: rgb(216, 90, 48); color: rgb(11, 11, 11); stroke-width: 8; stroke-linecap: round; stroke-linejoin: miter; opacity: 1; font-family: &quot;Anthropic Sans&quot;, -apple-system, BlinkMacSystemFont, &quot;Segoe UI&quot;, sans-serif; font-size: 16px; font-weight: 400; text-anchor: start; dominant-baseline: auto;"/>
  <rect x="511.475" y="174.387" width="14" height="22" rx="3" fill="#2C2C2A" style="fill: rgb(44, 44, 42); stroke: none; color: rgb(11, 11, 11); stroke-width: 1; stroke-linecap: butt; stroke-linejoin: miter; opacity: 1; font-family: &quot;Anthropic Sans&quot;, -apple-system, BlinkMacSystemFont, &quot;Segoe UI&quot;, sans-serif; font-size: 16px; font-weight: 400; text-anchor: start; dominant-baseline: auto;"/>
  <rect x="513.475" y="176.387" width="10" height="16" rx="1" fill="#378ADD" style="fill: rgb(55, 138, 221); stroke: none; color: rgb(11, 11, 11); stroke-width: 1; stroke-linecap: butt; stroke-linejoin: miter; opacity: 1; font-family: &quot;Anthropic Sans&quot;, -apple-system, BlinkMacSystemFont, &quot;Segoe UI&quot;, sans-serif; font-size: 16px; font-weight: 400; text-anchor: start; dominant-baseline: auto;"/>
  <rect x="514.475" y="178.387" width="8" height="2" rx="1" fill="#B5D4F4" style="fill: rgb(181, 212, 244); stroke: none; color: rgb(11, 11, 11); stroke-width: 1; stroke-linecap: butt; stroke-linejoin: miter; opacity: 1; font-family: &quot;Anthropic Sans&quot;, -apple-system, BlinkMacSystemFont, &quot;Segoe UI&quot;, sans-serif; font-size: 16px; font-weight: 400; text-anchor: start; dominant-baseline: auto;"/>
  <rect x="514.475" y="182.387" width="8" height="2" rx="1" fill="#85B7EB" opacity="0.7" style="fill: rgb(133, 183, 235); stroke: none; color: rgb(11, 11, 11); stroke-width: 1; stroke-linecap: butt; stroke-linejoin: miter; opacity: 0.7; font-family: &quot;Anthropic Sans&quot;, -apple-system, BlinkMacSystemFont, &quot;Segoe UI&quot;, sans-serif; font-size: 16px; font-weight: 400; text-anchor: start; dominant-baseline: auto;"/>
  <rect x="514.475" y="186.387" width="5" height="2" rx="1" fill="#85B7EB" opacity="0.5" style="fill: rgb(133, 183, 235); stroke: none; color: rgb(11, 11, 11); stroke-width: 1; stroke-linecap: butt; stroke-linejoin: miter; opacity: 0.5; font-family: &quot;Anthropic Sans&quot;, -apple-system, BlinkMacSystemFont, &quot;Segoe UI&quot;, sans-serif; font-size: 16px; font-weight: 400; text-anchor: start; dominant-baseline: auto;"/>
  <circle cx="490.475" cy="185.387" r="13" fill="#E8B896" style="fill: rgb(232, 184, 150); stroke: none; color: rgb(11, 11, 11); stroke-width: 1; stroke-linecap: butt; stroke-linejoin: miter; opacity: 1; font-family: &quot;Anthropic Sans&quot;, -apple-system, BlinkMacSystemFont, &quot;Segoe UI&quot;, sans-serif; font-size: 16px; font-weight: 400; text-anchor: start; dominant-baseline: auto;"/>
  <path d="M 477.475 183.387 C 478.808 176.053 483.141 172.053 490.475 171.387 C 497.808 172.053 502.141 176.053 503.475 183.387" fill="#5A3A1A" style="fill: rgb(90, 58, 26); stroke: none; color: rgb(11, 11, 11); stroke-width: 1; stroke-linecap: butt; stroke-linejoin: miter; opacity: 1; font-family: &quot;Anthropic Sans&quot;, -apple-system, BlinkMacSystemFont, &quot;Segoe UI&quot;, sans-serif; font-size: 16px; font-weight: 400; text-anchor: start; dominant-baseline: auto;"/>
  <circle cx="487.475" cy="184.387" r="2" fill="#2C2C2A" style="fill: rgb(44, 44, 42); stroke: none; color: rgb(11, 11, 11); stroke-width: 1; stroke-linecap: butt; stroke-linejoin: miter; opacity: 1; font-family: &quot;Anthropic Sans&quot;, -apple-system, BlinkMacSystemFont, &quot;Segoe UI&quot;, sans-serif; font-size: 16px; font-weight: 400; text-anchor: start; dominant-baseline: auto;"/>
  <circle cx="494.475" cy="184.387" r="2" fill="#2C2C2A" style="fill: rgb(44, 44, 42); stroke: none; color: rgb(11, 11, 11); stroke-width: 1; stroke-linecap: butt; stroke-linejoin: miter; opacity: 1; font-family: &quot;Anthropic Sans&quot;, -apple-system, BlinkMacSystemFont, &quot;Segoe UI&quot;, sans-serif; font-size: 16px; font-weight: 400; text-anchor: start; dominant-baseline: auto;"/>
  <circle cx="488.475" cy="183.387" r="0.7" fill="#FFFFFF" style="fill: rgb(255, 255, 255); stroke: none; color: rgb(11, 11, 11); stroke-width: 1; stroke-linecap: butt; stroke-linejoin: miter; opacity: 1; font-family: &quot;Anthropic Sans&quot;, -apple-system, BlinkMacSystemFont, &quot;Segoe UI&quot;, sans-serif; font-size: 16px; font-weight: 400; text-anchor: start; dominant-baseline: auto;"/>
  <circle cx="495.475" cy="183.387" r="0.7" fill="#FFFFFF" style="fill: rgb(255, 255, 255); stroke: none; color: rgb(11, 11, 11); stroke-width: 1; stroke-linecap: butt; stroke-linejoin: miter; opacity: 1; font-family: &quot;Anthropic Sans&quot;, -apple-system, BlinkMacSystemFont, &quot;Segoe UI&quot;, sans-serif; font-size: 16px; font-weight: 400; text-anchor: start; dominant-baseline: auto;"/>
  <path d="M 484.475 178.387 C 488.475 177.053 492.475 177.053 496.475 178.387" fill="none" stroke="#8B5E3C" stroke-width="1.5" stroke-linecap="round" style="fill: none; stroke: rgb(139, 94, 60); color: rgb(11, 11, 11); stroke-width: 1.5; stroke-linecap: round; stroke-linejoin: miter; opacity: 1; font-family: &quot;Anthropic Sans&quot;, -apple-system, BlinkMacSystemFont, &quot;Segoe UI&quot;, sans-serif; font-size: 16px; font-weight: 400; text-anchor: start; dominant-baseline: auto;"/>
  <path d="M 486.475 191.387 C 489.141 190.053 491.808 190.053 494.475 191.387" fill="none" stroke="#8B5E3C" stroke-width="1.5" stroke-linecap="round" style="fill: none; stroke: rgb(139, 94, 60); color: rgb(11, 11, 11); stroke-width: 1.5; stroke-linecap: round; stroke-linejoin: miter; opacity: 1; font-family: &quot;Anthropic Sans&quot;, -apple-system, BlinkMacSystemFont, &quot;Segoe UI&quot;, sans-serif; font-size: 16px; font-weight: 400; text-anchor: start; dominant-baseline: auto;"/>
  <line x1="501.475" y1="171.387" x2="508.475" y2="164.387" stroke="#E24B4A" stroke-width="2" stroke-linecap="round" style="fill: rgb(0, 0, 0); stroke: rgb(226, 75, 74); color: rgb(11, 11, 11); stroke-width: 2; stroke-linecap: round; stroke-linejoin: miter; opacity: 1; font-family: &quot;Anthropic Sans&quot;, -apple-system, BlinkMacSystemFont, &quot;Segoe UI&quot;, sans-serif; font-size: 16px; font-weight: 400; text-anchor: start; dominant-baseline: auto;"/>
  <line x1="506.475" y1="168.387" x2="515.475" y2="164.387" stroke="#E24B4A" stroke-width="2" stroke-linecap="round" style="fill: rgb(0, 0, 0); stroke: rgb(226, 75, 74); color: rgb(11, 11, 11); stroke-width: 2; stroke-linecap: round; stroke-linejoin: miter; opacity: 1; font-family: &quot;Anthropic Sans&quot;, -apple-system, BlinkMacSystemFont, &quot;Segoe UI&quot;, sans-serif; font-size: 16px; font-weight: 400; text-anchor: start; dominant-baseline: auto;"/>
  <line x1="502.475" y1="165.387" x2="508.475" y2="158.387" stroke="#E24B4A" stroke-width="1.5" stroke-linecap="round" style="fill: rgb(0, 0, 0); stroke: rgb(226, 75, 74); color: rgb(11, 11, 11); stroke-width: 1.5; stroke-linecap: round; stroke-linejoin: miter; opacity: 1; font-family: &quot;Anthropic Sans&quot;, -apple-system, BlinkMacSystemFont, &quot;Segoe UI&quot;, sans-serif; font-size: 16px; font-weight: 400; text-anchor: start; dominant-baseline: auto;"/>
  <rect x="537.475" y="139.387" width="178" height="52" rx="10" fill="#FFFDF5" stroke="#D4B870" stroke-width="1.5" style="fill: rgb(255, 253, 245); stroke: rgb(212, 184, 112); color: rgb(11, 11, 11); stroke-width: 1.5; stroke-linecap: butt; stroke-linejoin: miter; opacity: 1; font-family: &quot;Anthropic Sans&quot;, -apple-system, BlinkMacSystemFont, &quot;Segoe UI&quot;, sans-serif; font-size: 16px; font-weight: 400; text-anchor: start; dominant-baseline: auto;"/>
  <polygon points="537.475 153.387 511.475 179.387 549.475 163.387" fill="#FFFDF5" style="fill: rgb(255, 253, 245); stroke: none; color: rgb(11, 11, 11); stroke-width: 1; stroke-linecap: butt; stroke-linejoin: miter; opacity: 1; font-family: &quot;Anthropic Sans&quot;, -apple-system, BlinkMacSystemFont, &quot;Segoe UI&quot;, sans-serif; font-size: 16px; font-weight: 400; text-anchor: start; dominant-baseline: auto;"/>
  <line x1="537.475" y1="153.387" x2="511.475" y2="179.387" stroke="#D4B870" stroke-width="1.5" style="fill: rgb(0, 0, 0); stroke: rgb(212, 184, 112); color: rgb(11, 11, 11); stroke-width: 1.5; stroke-linecap: butt; stroke-linejoin: miter; opacity: 1; font-family: &quot;Anthropic Sans&quot;, -apple-system, BlinkMacSystemFont, &quot;Segoe UI&quot;, sans-serif; font-size: 16px; font-weight: 400; text-anchor: start; dominant-baseline: auto;"/>
  <line x1="549.475" y1="163.387" x2="511.475" y2="179.387" stroke="#FFFDF5" stroke-width="2.5" mask="url(#imagine-text-gaps-rfpvz7)" style="fill: rgb(0, 0, 0); stroke: rgb(255, 253, 245); color: rgb(11, 11, 11); stroke-width: 2.5; stroke-linecap: butt; stroke-linejoin: miter; opacity: 1; font-family: &quot;Anthropic Sans&quot;, -apple-system, BlinkMacSystemFont, &quot;Segoe UI&quot;, sans-serif; font-size: 16px; font-weight: 400; text-anchor: start; dominant-baseline: auto;"/>
  <text x="626.475" y="161.387" text-anchor="middle" font-family="'Anthropic Sans', -apple-system, sans-serif" font-size="14" font-weight="600" fill="#993C1D" style="fill: rgb(153, 60, 29); stroke: none; color: rgb(11, 11, 11); stroke-width: 1; stroke-linecap: butt; stroke-linejoin: miter; opacity: 1; font-family: &quot;Anthropic Sans&quot;, -apple-system, sans-serif; font-size: 14px; font-weight: 600; text-anchor: middle; dominant-baseline: auto; white-space: pre;">5-Iron? What the hell!</text>
  <text x="626.475" y="181.387" text-anchor="middle" font-family="'Anthropic Sans', -apple-system, sans-serif" font-size="12" fill="#5F5E5A" style="fill: rgb(95, 94, 90); stroke: none; color: rgb(11, 11, 11); stroke-width: 1; stroke-linecap: butt; stroke-linejoin: miter; opacity: 1; font-family: &quot;Anthropic Sans&quot;, -apple-system, sans-serif; font-size: 12px; font-weight: 400; text-anchor: middle; dominant-baseline: auto; white-space: pre;">Are you crazy?!</text>
  <g transform="matrix(1, 0, 0, 1, -31.670769, 75.090263)">
    <path d="M 316.962 111.313 C 318.556 116.372 338.485 120.499 343.878 108.794 C 346.719 102.626 339.628 85.806 331.312 86.154 C 325.41 86.399 313.115 99.094 316.962 111.313 Z" style="stroke-width: 1; fill: rgb(39, 80, 10);"/>
    <path d="M 323.732 109.643 C 323.732 109.643 327.059 113.23 328.907 113.969 L 328.076 125.613 L 332.278 125.613 C 332.278 125.613 331.725 111.38 331.587 109.672 C 331.575 109.526 335.606 104.173 335.606 104.173 L 331.18 107.302 L 330.432 99.23 C 330.432 99.23 329.554 108.702 329.23 111.335 L 323.732 109.643 Z" style="stroke-width: 1; fill: url(&quot;#color-0&quot;);"/>
  </g>
  <g transform="matrix(1, 0, 0, 1, -49.7714, 87.733353)">
    <path d="M 316.962 111.313 C 318.556 116.372 338.485 120.499 343.878 108.794 C 346.719 102.626 339.628 85.806 331.312 86.154 C 325.41 86.399 313.115 99.094 316.962 111.313 Z" style="stroke-width: 1; fill: rgb(39, 80, 10);"/>
    <path d="M 323.732 109.643 C 323.732 109.643 327.059 113.23 328.907 113.969 L 328.076 125.613 L 332.278 125.613 C 332.278 125.613 331.725 111.38 331.587 109.672 C 331.575 109.526 335.606 104.173 335.606 104.173 L 331.18 107.302 L 330.432 99.23 C 330.432 99.23 329.554 108.702 329.23 111.335 L 323.732 109.643 Z" style="stroke-width: 1; fill: url(&quot;#color-0&quot;);"/>
  </g>
  <g transform="matrix(1, 0, 0, 1, -65.344261, 113.817902)">
    <path d="M 316.962 111.313 C 318.556 116.372 338.485 120.499 343.878 108.794 C 346.719 102.626 339.628 85.806 331.312 86.154 C 325.41 86.399 313.115 99.094 316.962 111.313 Z" style="stroke-width: 1; fill: rgb(39, 80, 10);"/>
    <path d="M 323.732 109.643 C 323.732 109.643 327.059 113.23 328.907 113.969 L 328.076 125.613 L 332.278 125.613 C 332.278 125.613 331.725 111.38 331.587 109.672 C 331.575 109.526 335.606 104.173 335.606 104.173 L 331.18 107.302 L 330.432 99.23 C 330.432 99.23 329.554 108.702 329.23 111.335 L 323.732 109.643 Z" style="stroke-width: 1; fill: url(&quot;#color-0&quot;);"/>
  </g>
  <g transform="matrix(1, 0, 0, 1, -78.5812, 145.742294)">
    <path d="M 316.962 111.313 C 318.556 116.372 338.485 120.499 343.878 108.794 C 346.719 102.626 339.628 85.806 331.312 86.154 C 325.41 86.399 313.115 99.094 316.962 111.313 Z" style="stroke-width: 1; fill: rgb(39, 80, 10);"/>
    <path d="M 323.732 109.643 C 323.732 109.643 327.059 113.23 328.907 113.969 L 328.076 125.613 L 332.278 125.613 C 332.278 125.613 331.725 111.38 331.587 109.672 C 331.575 109.526 335.606 104.173 335.606 104.173 L 331.18 107.302 L 330.432 99.23 C 330.432 99.23 329.554 108.702 329.23 111.335 L 323.732 109.643 Z" style="stroke-width: 1; fill: url(&quot;#color-0&quot;);"/>
  </g>
  <g transform="matrix(1, 0, 0, 1, -36.92379, 99.80233)">
    <path d="M 316.962 111.313 C 318.556 116.372 338.485 120.499 343.878 108.794 C 346.719 102.626 339.628 85.806 331.312 86.154 C 325.41 86.399 313.115 99.094 316.962 111.313 Z" style="stroke-width: 1; fill: rgb(39, 80, 10);"/>
    <path d="M 323.732 109.643 C 323.732 109.643 327.059 113.23 328.907 113.969 L 328.076 125.613 L 332.278 125.613 C 332.278 125.613 331.725 111.38 331.587 109.672 C 331.575 109.526 335.606 104.173 335.606 104.173 L 331.18 107.302 L 330.432 99.23 C 330.432 99.23 329.554 108.702 329.23 111.335 L 323.732 109.643 Z" style="stroke-width: 1; fill: url(&quot;#color-0&quot;);"/>
  </g>
  <g transform="matrix(1, 0, 0, 1, -46.267509, 129.00145)">
    <path d="M 316.962 111.313 C 318.556 116.372 338.485 120.499 343.878 108.794 C 346.719 102.626 339.628 85.806 331.312 86.154 C 325.41 86.399 313.115 99.094 316.962 111.313 Z" style="stroke-width: 1; fill: rgb(39, 80, 10);"/>
    <path d="M 323.732 109.643 C 323.732 109.643 327.059 113.23 328.907 113.969 L 328.076 125.613 L 332.278 125.613 C 332.278 125.613 331.725 111.38 331.587 109.672 C 331.575 109.526 335.606 104.173 335.606 104.173 L 331.18 107.302 L 330.432 99.23 C 330.432 99.23 329.554 108.702 329.23 111.335 L 323.732 109.643 Z" style="stroke-width: 1; fill: url(&quot;#color-0&quot;);"/>
  </g>
  <g transform="matrix(1, 0, 0, 1, -55.611229, 150.803467)">
    <path d="M 316.962 111.313 C 318.556 116.372 338.485 120.499 343.878 108.794 C 346.719 102.626 339.628 85.806 331.312 86.154 C 325.41 86.399 313.115 99.094 316.962 111.313 Z" style="stroke-width: 1; fill: rgb(39, 80, 10);"/>
    <path d="M 323.732 109.643 C 323.732 109.643 327.059 113.23 328.907 113.969 L 328.076 125.613 L 332.278 125.613 C 332.278 125.613 331.725 111.38 331.587 109.672 C 331.575 109.526 335.606 104.173 335.606 104.173 L 331.18 107.302 L 330.432 99.23 C 330.432 99.23 329.554 108.702 329.23 111.335 L 323.732 109.643 Z" style="stroke-width: 1; fill: url(&quot;#color-0&quot;);"/>
  </g>
  <g transform="matrix(1, 0, 0, 1, -7.724662, 65.542023)">
    <path d="M 316.962 111.313 C 318.556 116.372 338.485 120.499 343.878 108.794 C 346.719 102.626 339.628 85.806 331.312 86.154 C 325.41 86.399 313.115 99.094 316.962 111.313 Z" style="stroke-width: 1; fill: rgb(39, 80, 10);"/>
    <path d="M 323.732 109.643 C 323.732 109.643 327.059 113.23 328.907 113.969 L 328.076 125.613 L 332.278 125.613 C 332.278 125.613 331.725 111.38 331.587 109.672 C 331.575 109.526 335.606 104.173 335.606 104.173 L 331.18 107.302 L 330.432 99.23 C 330.432 99.23 329.554 108.702 329.23 111.335 L 323.732 109.643 Z" style="stroke-width: 1; fill: url(&quot;#color-0&quot;);"/>
  </g>
  <g transform="matrix(1, 0, 0, 1, 21.085136, 50.747799)">
    <path d="M 316.962 111.313 C 318.556 116.372 338.485 120.499 343.878 108.794 C 346.719 102.626 339.628 85.806 331.312 86.154 C 325.41 86.399 313.115 99.094 316.962 111.313 Z" style="stroke-width: 1; fill: rgb(39, 80, 10);"/>
    <path d="M 323.732 109.643 C 323.732 109.643 327.059 113.23 328.907 113.969 L 328.076 125.613 L 332.278 125.613 C 332.278 125.613 331.725 111.38 331.587 109.672 C 331.575 109.526 335.606 104.173 335.606 104.173 L 331.18 107.302 L 330.432 99.23 C 330.432 99.23 329.554 108.702 329.23 111.335 L 323.732 109.643 Z" style="stroke-width: 1; fill: url(&quot;#color-0&quot;);"/>
  </g>
  <g transform="matrix(1, 0, 0, 1, 46.001717, 53.083733)">
    <path d="M 316.962 111.313 C 318.556 116.372 338.485 120.499 343.878 108.794 C 346.719 102.626 339.628 85.806 331.312 86.154 C 325.41 86.399 313.115 99.094 316.962 111.313 Z" style="stroke-width: 1; fill: rgb(39, 80, 10);"/>
    <path d="M 323.732 109.643 C 323.732 109.643 327.059 113.23 328.907 113.969 L 328.076 125.613 L 332.278 125.613 C 332.278 125.613 331.725 111.38 331.587 109.672 C 331.575 109.526 335.606 104.173 335.606 104.173 L 331.18 107.302 L 330.432 99.23 C 330.432 99.23 329.554 108.702 329.23 111.335 L 323.732 109.643 Z" style="stroke-width: 1; fill: url(&quot;#color-0&quot;);"/>
  </g>
  <g transform="matrix(1, 0, 0, 1, 12.520059, 59.702206)">
    <path d="M 316.962 111.313 C 318.556 116.372 338.485 120.499 343.878 108.794 C 346.719 102.626 339.628 85.806 331.312 86.154 C 325.41 86.399 313.115 99.094 316.962 111.313 Z" style="stroke-width: 1; fill: rgb(39, 80, 10);"/>
    <path d="M 323.732 109.643 C 323.732 109.643 327.059 113.23 328.907 113.969 L 328.076 125.613 L 332.278 125.613 C 332.278 125.613 331.725 111.38 331.587 109.672 C 331.575 109.526 335.606 104.173 335.606 104.173 L 331.18 107.302 L 330.432 99.23 C 330.432 99.23 329.554 108.702 329.23 111.335 L 323.732 109.643 Z" style="stroke-width: 1; fill: url(&quot;#color-0&quot;);"/>
  </g>
</svg>